<svg width="24" height="24" viewBox="0 0 24 24" fill="none" xmlns="http://www.w3.org/2000/svg">
  <path
    d="M20.7916 18.2089C20.448 19.0028 20.0412 19.7336 19.5699 20.4055C18.9275 21.3215 18.4015 21.9555 17.9961 22.3076C17.3677 22.8855 16.6944 23.1814 15.9734 23.1982C15.4558 23.1982 14.8316 23.051 14.1051 22.7522C13.3761 22.4548 12.7062 22.3076 12.0936 22.3076C11.4512 22.3076 10.7622 22.4548 10.0252 22.7522C9.28715 23.051 8.69256 23.2067 8.23795 23.2221C7.54657 23.2516 6.85743 22.9472 6.16956 22.3076C5.73052 21.9246 5.18138 21.2682 4.52352 20.3382C3.81769 19.3451 3.23741 18.1935 2.7828 16.8806C2.29593 15.4625 2.05186 14.0893 2.05186 12.7598C2.05186 11.2369 2.38093 9.92346 3.04005 8.82278C3.55806 7.93867 4.24719 7.24126 5.1097 6.72929C5.97221 6.21731 6.90414 5.95641 7.90776 5.93972C8.45691 5.93972 9.17704 6.10958 10.0719 6.44342C10.9643 6.77838 11.5373 6.94824 11.7885 6.94824C11.9764 6.94824 12.6129 6.74963 13.692 6.35365C14.7124 5.98643 15.5737 5.83438 16.2792 5.89427C18.1911 6.04857 19.6274 6.80222 20.5826 8.16002C18.8728 9.19603 18.0269 10.6471 18.0438 12.5086C18.0592 13.9585 18.5852 15.1651 19.619 16.1232C20.0875 16.5678 20.6107 16.9115 21.1928 17.1555C21.0665 17.5216 20.9333 17.8723 20.7916 18.2089ZM16.4069 0.954607C16.4069 2.09106 15.9917 3.15218 15.1641 4.13433C14.1654 5.30192 12.9574 5.97661 11.6474 5.87015C11.6299 5.72728 11.6211 5.58347 11.6211 5.43953C11.6211 4.34852 12.096 3.18094 12.9394 2.22627C13.3605 1.74291 13.8961 1.34104 14.5455 1.02039C15.1935 0.70451 15.8065 0.529877 16.383 0.5C16.3998 0.65191 16.4069 0.80382 16.4069 0.954467V0.954607Z"
    fill="#121212" />
</svg>
  